<svg width="265" height="53" viewBox="0 0 265 53" fill="none" xmlns="http://www.w3.org/2000/svg">
<path d="M11.6921 11.0456H58.899V0H11.7743C5.27182 0 0 5.56317 0 12.425C0 19.2869 5.27182 24.85 11.7743 24.85H19.7989C20.4727 24.85 21.0195 25.4271 21.0195 26.1381C21.0195 26.8491 20.4727 27.4261 19.7989 27.4261H0.0346261V38.4717L19.8105 38.4139C23.7492 38.4017 27.2262 36.3387 29.3398 33.1841C31.4174 36.4971 34.968 38.694 39.0121 38.729L47.2055 38.8006C47.8792 38.8067 48.4217 39.3837 48.4217 40.0947C48.4217 40.8088 47.872 41.3888 47.1954 41.3888H0.0158703V52.4345H47.1117C53.6142 52.4345 58.886 46.8713 58.886 40.0094C58.886 33.1476 53.6142 27.5844 47.1117 27.5844H39.0871C38.4133 27.5844 37.8665 27.0074 37.8665 26.2964C37.8665 25.5854 38.4133 25.0084 39.0871 25.0084H58.8788V13.9627L39.0756 14.0206C35.1368 14.0328 31.6598 16.0957 29.5462 19.2503C27.4686 15.9374 23.918 13.7404 19.8739 13.7054L11.6805 13.6339C11.0068 13.6278 10.4643 13.0508 10.4643 12.3398C10.4643 11.6288 11.014 11.0456 11.6906 11.0456H11.6921Z" fill="#e3c89a"/>
<path d="M243.32 40.086V12.2109H249.434V20.9797C249.434 21.744 249.313 23.9965 249.192 25.4848H249.273C250.278 21.7037 252.611 19.8937 257.116 19.8937C261.903 19.8937 265 22.5082 265 27.6568V40.086H258.886V29.0244C258.886 26.2088 257.317 24.9619 254.582 24.9619C251.364 24.9619 249.434 26.8524 249.434 30.6334V40.086H243.32Z" fill="#e3c89a"/>
<path d="M236.602 40.4078C230.407 40.4078 228.195 37.6726 228.195 33.248V24.9619H225.258V20.2155H227.632C228.557 20.2155 228.879 19.6926 228.999 18.4859L229.281 15.7104H234.309V20.2155H240.664V24.9619H234.309V32.9262C234.309 34.9776 235.274 35.6212 237.688 35.6212C238.532 35.6212 239.779 35.5005 240.463 35.3396V39.9653C239.94 40.086 238.251 40.4078 236.602 40.4078Z" fill="#e3c89a"/>
<path d="M201.955 40.0859V20.2153H208.069L207.827 25.4847H207.908C208.913 21.7036 211.246 19.8936 215.751 19.8936C220.538 19.8936 223.635 22.5081 223.635 27.6567V40.0859H217.521V29.0243C217.521 26.2087 215.912 24.9617 213.217 24.9617C209.999 24.9617 208.069 26.8523 208.069 30.6333V40.0859H201.955Z" fill="#e3c89a"/>
<path d="M183.989 48.5328C181.978 48.5328 180.69 48.211 180.167 48.0099V43.4646C180.771 43.6255 181.696 43.7864 182.702 43.7864C184.713 43.7864 185.638 42.8211 186.643 40.0858H185.316L177.07 20.2153H184.069L189.178 33.8914H189.258L193.884 20.2153H199.756L192.556 40.5685C190.545 46.2803 188.092 48.5328 183.989 48.5328Z" fill="#e3c89a"/>
<path d="M164 40.488C154.91 40.488 152.496 35.8623 152.496 30.9952H158.369C158.369 33.8511 159.535 35.7014 163.96 35.7014C168.425 35.7014 169.43 34.0924 169.43 32.403C169.43 31.2768 168.948 30.5527 167.902 30.1907C166.735 29.7885 164 29.3862 161.788 29.0644C159.173 28.6622 156.519 28.1393 154.99 27.1337C153.301 26.0477 152.416 24.1974 152.416 21.6633C152.416 16.6755 156.318 13.2163 163.96 13.2163C172.367 13.2163 175.102 16.7158 175.102 22.6689H169.27C169.27 19.6521 167.701 18.0029 164.081 18.0029C160.501 18.0029 158.972 19.3303 158.972 21.1002C158.972 22.3873 159.334 23.1113 160.259 23.5136C161.265 23.956 164.04 24.3985 166.293 24.7605C169.27 25.2432 171.522 25.7259 173.091 26.5706C174.981 27.5762 175.987 29.4667 175.987 31.9606C175.987 36.4656 173.453 40.488 164 40.488Z" fill="#e3c89a"/>
<path d="M149.981 29.5875V31.3171H135.863C136.144 34.5752 137.794 35.983 140.529 35.983C142.902 35.983 144.43 35.1383 144.591 33.2076H149.981C149.861 37.7529 146.08 40.4076 140.408 40.4076C133.811 40.4076 129.709 36.6668 129.709 30.3517C129.709 23.7953 133.811 19.8936 140.529 19.8936C146.08 19.8936 149.981 23.0712 149.981 29.5875ZM144.591 28.059V27.7372C144.591 25.4846 143.063 24.3182 140.529 24.3182C137.954 24.3182 136.506 25.4444 136.024 28.059H144.591Z" fill="#e3c89a"/>
<path d="M124.297 40.4078C118.103 40.4078 115.891 37.6726 115.891 33.248V24.9619H112.954V20.2155H115.327C116.253 20.2155 116.574 19.6926 116.695 18.4859L116.977 15.7104H122.005V20.2155H128.36V24.9619H122.005V32.9262C122.005 34.9776 122.97 35.6212 125.383 35.6212C126.228 35.6212 127.475 35.5005 128.159 35.3396V39.9653C127.636 40.086 125.947 40.4078 124.297 40.4078Z" fill="#e3c89a"/>
<path d="M104.856 18.1239V13.2568H110.97V18.1239H104.856ZM104.856 40.086V20.2155H110.97V40.086H104.856Z" fill="#e3c89a"/>
<path d="M89.8771 40.488C80.7865 40.488 78.3731 35.8623 78.3731 30.9952H84.2458C84.2458 33.8511 85.4123 35.7014 89.8369 35.7014C94.3017 35.7014 95.3073 34.0924 95.3073 32.403C95.3073 31.2768 94.8246 30.5527 93.7788 30.1907C92.6123 29.7885 89.8771 29.3862 87.6648 29.0644C85.0502 28.6622 82.3955 28.1393 80.867 27.1337C79.1776 26.0477 78.2927 24.1974 78.2927 21.6633C78.2927 16.6755 82.1944 13.2163 89.8369 13.2163C98.2436 13.2163 100.979 16.7158 100.979 22.6689H95.1464C95.1464 19.6521 93.5777 18.0029 89.9575 18.0029C86.3776 18.0029 84.8491 19.3303 84.8491 21.1002C84.8491 22.3873 85.2111 23.1113 86.1363 23.5136C87.1419 23.956 89.9173 24.3985 92.1698 24.7605C95.1464 25.2432 97.3989 25.7259 98.9676 26.5706C100.858 27.5762 101.864 29.4667 101.864 31.9606C101.864 36.4656 99.3297 40.488 89.8771 40.488Z" fill="#e3c89a"/>
</svg>
